<svg width="150" height="151" viewBox="0 0 150 151" fill="none" xmlns="http://www.w3.org/2000/svg">
<path d="M125 76C125 69.4339 123.707 62.9321 121.194 56.8658C118.681 50.7995 114.998 45.2876 110.355 40.6447C105.712 36.0017 100.2 32.3188 94.1342 29.806C88.0679 27.2933 81.5661 26 75 26L75 76H125Z" fill="#4AB6DE"/>
<path d="M150 76C150 90.8336 145.601 105.334 137.36 117.668C129.119 130.001 117.406 139.614 103.701 145.291C89.9968 150.968 74.9168 152.453 60.3682 149.559C45.8197 146.665 32.4559 139.522 21.967 129.033C11.4781 118.544 4.335 105.18 1.44111 90.6318C-1.45279 76.0832 0.0324579 61.0032 5.70903 47.2988C11.3856 33.5943 20.9985 21.8809 33.3322 13.6398C45.6659 5.39869 60.1664 1.00001 75 1L75 76H150Z" fill="#D4BD3B"/>
<rect x="40" width="35" height="91" fill="white"/>
<rect x="150" y="76" width="30" height="36" transform="rotate(90 150 76)" fill="white"/>
</svg>
